<?xml version="1.0" encoding="UTF-8" standalone="no"?>
<!-- Created with Inkscape (http://www.inkscape.org/) -->
<svg
   xmlns:dc="http://purl.org/dc/elements/1.1/"
   xmlns:cc="http://web.resource.org/cc/"
   xmlns:rdf="http://www.w3.org/1999/02/22-rdf-syntax-ns#"
   xmlns:svg="http://www.w3.org/2000/svg"
   xmlns="http://www.w3.org/2000/svg"
   xmlns:xlink="http://www.w3.org/1999/xlink"
   xmlns:sodipodi="http://sodipodi.sourceforge.net/DTD/sodipodi-0.dtd"
   xmlns:inkscape="http://www.inkscape.org/namespaces/inkscape"
   width="16px"
   height="16px"
   id="svg2192"
   sodipodi:version="0.32"
   inkscape:version="0.44.1"
   sodipodi:docname="labourforce.svg">
  <defs
     id="defs2194">
    <linearGradient
       gradientTransform="translate(6.24973e-2,-3.21416e-2)"
       y2="24.363636"
       x2="44.363636"
       y1="33.454544"
       x1="20"
       gradientUnits="userSpaceOnUse"
       id="linearGradient25864"
       xlink:href="#linearGradient24945"
       inkscape:collect="always" />
    <linearGradient
       gradientUnits="userSpaceOnUse"
       y2="24.363636"
       x2="44.363636"
       y1="33.454544"
       x1="20"
       id="linearGradient24951"
       xlink:href="#linearGradient24945"
       inkscape:collect="always" />
    <linearGradient
       gradientUnits="userSpaceOnUse"
       y2="28.639874"
       x2="56.959797"
       y1="28.639874"
       x1="4.9375"
       id="linearGradient24050"
       xlink:href="#linearGradient24044"
       inkscape:collect="always" />
    <linearGradient
       id="linearGradient24044">
      <stop
         id="stop24046"
         offset="0"
         style="stop-color:#f0d228;stop-opacity:1;" />
      <stop
         id="stop24048"
         offset="1"
         style="stop-color:#a0823c;stop-opacity:1;" />
    </linearGradient>
    <linearGradient
       id="linearGradient24945">
      <stop
         id="stop24947"
         offset="0"
         style="stop-color:#f0faaf;stop-opacity:1;" />
      <stop
         id="stop24949"
         offset="1"
         style="stop-color:#c8a00e;stop-opacity:0;" />
    </linearGradient>
  </defs>
  <sodipodi:namedview
     id="base"
     pagecolor="#ffffff"
     bordercolor="#666666"
     borderopacity="1.0"
     inkscape:pageopacity="0.0"
     inkscape:pageshadow="2"
     inkscape:zoom="31.392433"
     inkscape:cx="10.851228"
     inkscape:cy="7.6277394"
     inkscape:current-layer="layer1"
     showgrid="true"
     inkscape:grid-bbox="true"
     inkscape:document-units="px"
     inkscape:window-width="1013"
     inkscape:window-height="588"
     inkscape:window-x="133"
     inkscape:window-y="218" />
  <metadata
     id="metadata2197">
    <rdf:RDF>
      <cc:Work
         rdf:about="">
        <dc:format>image/svg+xml</dc:format>
        <dc:type
           rdf:resource="http://purl.org/dc/dcmitype/StillImage" />
      </cc:Work>
    </rdf:RDF>
  </metadata>
  <g
     id="layer1"
     inkscape:label="Layer 1"
     inkscape:groupmode="layer">
    <g
       inkscape:label="Layer 1"
       id="g2276"
       transform="matrix(0.30114,0,0,0.30114,-1.4432,-1.44967)">
      <path
         sodipodi:nodetypes="ccccscccccscccccsccccccccccccsscsccsccscc"
         id="path19543"
         d="M 37.116047,12.829971 C 35.073696,12.867289 35.860564,12.84981 33.866047,12.861221 C 31.715149,13.171683 33.188163,12.69954 29.147297,13.517471 C 28.297559,13.76097 27.494283,13.9236 26.584797,14.204971 C 26.198986,14.396321 25.731952,14.59625 25.553547,14.642471 C 25.375143,14.68869 22.539822,16.91233 22.255252,17.111221 C 21.334832,18.120087 19.736673,19.394226 17.741047,21.579971 C 16.964892,22.732691 16.43053,23.199656 16.462638,23.847016 C 15.863265,24.92917 15.30901,27.043315 15.053547,28.642471 C 15.004977,28.514359 15.01188,28.913304 14.991047,29.048721 C 14.603989,31.052311 14.206474,33.272704 14.022297,34.548721 C 13.941949,35.105388 13.632465,35.920673 13.303547,36.361221 L 12.709797,37.079971 C 12.199854,37.25406 11.717467,37.484063 11.209797,37.682244 C 9.9468353,37.845285 9.0913352,38.004025 8.0535464,38.017471 L 6.6472964,38.267471 C 5.9528374,38.377733 5.2626543,38.591414 5.1160464,38.767471 C 4.7646783,39.18942 5.2703129,39.196781 5.8433191,39.426562 C 8.2178046,39.712315 8.2011981,39.758235 10.459796,39.861221 L 14.397297,40.287357 C 15.417166,40.524911 16.23416,40.677035 18.897297,41.173721 C 20.240042,41.473447 21.384605,41.690124 23.618888,42.057244 C 25.719088,42.3938 29.575124,42.901884 32.022297,43.111221 C 35.731512,43.487726 37.187878,43.651239 40.116047,43.954971 C 42.227909,44.074267 44.536276,44.144299 46.522297,44.298721 C 46.778343,44.264698 47.890321,44.434119 49.366047,44.454971 C 51.917634,44.336584 52.548082,44.230526 54.670024,44.224857 L 56.897297,44.236221 L 56.897297,43.204971 C 56.897297,42.52853 56.663988,42.003597 56.272297,41.673721 C 56.172707,41.589848 56.122484,41.482867 56.053547,41.392471 C 56.069882,41.344706 55.974281,41.250485 55.897297,41.142471 C 55.728451,40.703542 55.707413,39.95103 55.741047,38.111221 C 55.773738,36.322864 55.681,35.048721 55.522297,35.048721 C 55.152024,32.882183 54.750457,30.350405 54.334797,28.079971 C 54.35246,27.28688 52.746949,23.369463 51.647297,21.548721 C 50.607454,19.827009 48.961904,18.537412 48.78082,18.142471 C 47.969584,17.208079 46.175911,16.174735 44.928547,15.361221 C 44.644536,15.173786 44.678472,15.142923 44.564911,15.088494 C 43.831872,14.737156 39.931358,12.75304 38.772297,12.829971 C 37.380657,12.817771 38.774765,12.831024 37.116047,12.829971 z "
         style="fill:url(#linearGradient24050);fill-opacity:1;stroke:black;stroke-width:0.33207187;stroke-miterlimit:4;stroke-dasharray:none;stroke-opacity:1" />
      <g
         transform="translate(7.454545,56)"
         id="g19509" />
      <path
         style="opacity:0.45622122;fill:url(#linearGradient25864);fill-opacity:1;stroke:black;stroke-width:0.33207187;stroke-miterlimit:4;stroke-dasharray:none;stroke-opacity:1"
         d="M 37.178547,12.79783 C 35.136196,12.835148 35.923064,12.817669 33.928547,12.82908 C 31.777649,13.139542 33.250663,12.667399 29.209797,13.48533 C 28.360059,13.728829 27.556783,13.891459 26.647297,14.17283 C 26.261486,14.36418 25.794452,14.564109 25.616047,14.61033 C 25.437643,14.656549 22.602322,16.880189 22.317752,17.07908 C 21.397332,18.087946 19.799173,19.362085 17.803547,21.54783 C 17.027392,22.70055 16.49303,23.167515 16.525138,23.814875 C 15.925765,24.897029 15.37151,27.011174 15.116047,28.61033 C 15.067477,28.482218 15.07438,28.881163 15.053547,29.01658 C 14.666489,31.02017 14.268974,33.240563 14.084797,34.51658 C 14.004449,35.073247 13.694965,35.888532 13.366047,36.32908 L 12.772297,37.04783 C 12.262354,37.221919 11.779967,37.451922 11.272297,37.650103 C 10.009335,37.813144 9.1538353,37.971884 8.1160463,37.98533 L 6.7097963,38.23533 C 6.0153373,38.345592 5.3251543,38.559273 5.1785463,38.73533 C 4.8271783,39.157279 5.3328133,39.16464 5.9058193,39.394421 C 8.2803053,39.680174 8.2636983,39.726094 10.522296,39.82908 L 14.459797,40.255216 C 15.479666,40.49277 16.29666,40.644894 18.959797,41.14158 C 20.302542,41.441306 21.447105,41.657983 23.681388,42.025103 C 25.781588,42.361659 29.637624,42.869743 32.084797,43.07908 C 35.794012,43.455585 37.250377,43.619098 40.178547,43.92283 C 42.290407,44.042126 44.598777,44.112158 46.584797,44.26658 C 46.840847,44.232557 47.952817,44.401978 49.428547,44.42283 C 51.980137,44.304443 52.610577,44.198385 54.732527,44.192716 L 56.959797,44.20408 L 56.959797,43.17283 C 56.959797,42.496389 56.726487,41.971456 56.334797,41.64158 C 56.235207,41.557707 56.184987,41.450726 56.116047,41.36033 C 56.132377,41.312565 56.036777,41.218344 55.959797,41.11033 C 55.790947,40.671401 55.769917,39.918889 55.803547,38.07908 C 55.836237,36.290723 55.743497,35.01658 55.584797,35.01658 C 55.214527,32.850042 54.812957,30.318264 54.397297,28.04783 C 54.414957,27.254739 52.809447,23.337322 51.709797,21.51658 C 50.669957,19.794868 49.024407,18.505271 48.843317,18.11033 C 48.032087,17.175938 46.238407,16.142594 44.991047,15.32908 C 44.707037,15.141645 44.740967,15.110782 44.627407,15.056353 C 43.894367,14.705015 39.993857,12.720899 38.834797,12.79783 C 37.443157,12.78563 38.837267,12.798883 37.178547,12.79783 z "
         id="path24058"
         sodipodi:nodetypes="ccccscccccscccccsccccccccccccsscsccsccscc" />
    </g>
  </g>
</svg>
