<?xml version="1.0" encoding="UTF-8" standalone="no"?>
<!-- Created with Inkscape (http://www.inkscape.org/) -->
<svg
   xmlns:dc="http://purl.org/dc/elements/1.1/"
   xmlns:cc="http://web.resource.org/cc/"
   xmlns:rdf="http://www.w3.org/1999/02/22-rdf-syntax-ns#"
   xmlns:svg="http://www.w3.org/2000/svg"
   xmlns="http://www.w3.org/2000/svg"
   xmlns:sodipodi="http://sodipodi.sourceforge.net/DTD/sodipodi-0.dtd"
   xmlns:inkscape="http://www.inkscape.org/namespaces/inkscape"
   width="16px"
   height="16px"
   id="svg2316"
   sodipodi:version="0.32"
   inkscape:version="0.44.1"
   sodipodi:docname="machinery.svg">
  <defs
     id="defs2318" />
  <sodipodi:namedview
     id="base"
     pagecolor="#ffffff"
     bordercolor="#666666"
     borderopacity="1.0"
     inkscape:pageopacity="0.0"
     inkscape:pageshadow="2"
     inkscape:zoom="15.696216"
     inkscape:cx="1.9440778"
     inkscape:cy="5.6437797"
     inkscape:current-layer="layer1"
     showgrid="true"
     inkscape:grid-bbox="true"
     inkscape:document-units="px"
     inkscape:window-width="1013"
     inkscape:window-height="588"
     inkscape:window-x="133"
     inkscape:window-y="218" />
  <metadata
     id="metadata2321">
    <rdf:RDF>
      <cc:Work
         rdf:about="">
        <dc:format>image/svg+xml</dc:format>
        <dc:type
           rdf:resource="http://purl.org/dc/dcmitype/StillImage" />
      </cc:Work>
    </rdf:RDF>
  </metadata>
  <g
     id="layer1"
     inkscape:label="Layer 1"
     inkscape:groupmode="layer">
    <g
       inkscape:label="Layer 1"
       id="g2391"
       transform="matrix(0.238463,0,0,0.238463,0.463623,-3.522174e-3)">
      <path
         sodipodi:nodetypes="cssssssssssssssssccccccsscccssccccssssssccsc"
         style="fill:#9ea19d"
         d="M 42.085372,54.128117 C 41.873165,53.898584 38.130468,53.710785 33.768273,53.710785 C 26.431134,53.710785 25.78022,53.627419 25.078881,52.597898 C 24.624689,51.931172 24.383207,50.598189 24.476537,49.272959 C 24.62702,47.136193 24.571319,47.049623 22.839898,46.729328 C 20.413415,46.280455 17.718685,44.682123 17.718685,43.691771 C 17.718685,41.770171 15.975025,38.320691 14.618367,37.558419 C 12.97006,36.632277 4.4035333,24.786269 4.4035333,23.433092 C 4.4035333,22.939191 3.6158223,21.264174 2.6530633,19.710832 C -1.6529667,12.763362 -0.46023675,7.825742 4.3770073,12.57412 C 6.0355423,14.202186 6.8929153,14.605992 9.1156043,14.805906 C 10.608132,14.940147 12.347814,15.177246 12.981564,15.332792 C 13.791323,15.531538 14.133837,15.360253 14.133837,14.756564 C 14.133837,12.997686 16.608711,12.690384 20.227602,13.999907 C 22.086864,14.672696 25.336489,15.31148 27.448989,15.419428 C 30.347721,15.567552 31.603957,15.891137 32.570201,16.738564 C 33.274368,17.356141 34.527072,18.290348 35.35399,18.814579 C 37.507335,20.179712 39.414773,22.51581 40.752638,25.426472 L 41.914437,27.954075 L 45.682732,27.570396 C 52.080714,26.918968 52.925678,27.485221 53.967368,33.122373 L 54.378668,35.348147 L 58.815313,35.717357 C 61.255468,35.920422 63.492654,36.2482 63.786837,36.445751 C 64.46572,36.901637 64.492776,43.792473 63.817462,44.245961 C 63.540123,44.432202 62.330236,44.783151 61.128826,45.025849 L 58.944444,45.467118 L 60.992929,45.91322 C 63.354474,46.427498 63.793587,46.951896 63.79476,49.259236 C 63.796767,53.202664 63.843053,53.172299 56.731988,53.892916 C 49.366569,54.639309 42.657591,54.747044 42.085372,54.128117 z M 36.614264,45.068281 L 38.459595,45.050653 L 37.054745,43.91174 C 35.924768,42.995667 35.749415,42.570779 36.158533,41.740176 C 36.998425,40.035001 36.740351,37.507227 35.386868,34.181888 C 34.682701,32.451838 34.106565,30.700397 34.106565,30.289795 C 34.106565,28.417147 32.328193,25.66172 30.576162,24.819752 C 28.919688,24.023706 14.47747,20.602393 12.773634,20.602393 C 12.395079,20.602393 12.085352,20.902969 12.085352,21.270339 C 12.085352,22.4856 20.977107,38.96503 21.632822,38.96503 C 26.04041,45.451315 26.072763,45.473637 29.241413,45.135053 C 30.03963,45.110948 29.222243,45.573982 31.493052,45.374166 C 33.294786,45.215625 35.599332,45.077977 36.614264,45.068281 z "
         id="path36670" />
      <path
         sodipodi:nodetypes="csssssssssssssssssssssccsssssssssssssscccccssscccssssssssccssc"
         style="fill:#d6a55b"
         d="M 42.149985,53.263811 C 41.157376,52.676854 39.979968,52.612506 37.028773,52.983928 C 32.625034,53.538158 27.191567,53.117218 25.942811,52.125079 C 24.875431,51.277042 24.819759,48.188058 25.851648,47.066862 C 26.396495,46.474861 28.585831,46.089399 33.49079,45.721888 C 37.272268,45.438556 40.423819,45.197902 40.494235,45.187101 C 41.179028,45.082064 40.209778,44.139443 38.575189,43.320784 C 36.585993,42.324523 36.559264,42.271296 36.858198,39.901582 C 37.096985,38.008662 36.875775,36.815422 35.822749,34.316246 C 35.086239,32.568264 34.613255,30.910225 34.771673,30.631716 C 35.28021,29.737671 35.969957,30.684398 36.561451,33.08831 C 37.329171,36.208435 37.919542,36.942607 39.106008,36.252674 C 39.621248,35.95306 40.650125,35.707922 41.392399,35.707922 C 42.499118,35.707922 42.712493,35.482617 42.578092,34.455924 C 42.47027,33.632301 42.107637,33.251524 41.518232,33.343037 C 41.025448,33.419548 40.233642,33.544748 39.75866,33.621259 C 39.217333,33.708457 38.213987,32.690389 37.070023,30.893177 C 35.000245,27.641476 32.380703,25.088917 30.12378,24.124553 C 28.280759,23.337046 13.82383,20.127503 12.119638,20.127503 C 10.641985,20.127503 10.568615,21.279581 11.959187,22.646947 C 12.531161,23.209375 14.868967,27.191977 17.154312,31.497174 C 19.439657,35.802372 21.414473,39.450005 21.54279,39.603027 C 22.038844,40.194586 25.089423,35.658252 25.545874,33.650279 C 23.553755,36.824622 28.482501,58.551358 18.003406,43.127505 C 18.853379,41.477238 15.757837,36.264366 13.927892,36.264366 C 13.37414,36.264366 11.62235,34.219946 9.4513852,31.040078 C 7.4896812,28.16672 5.6347052,25.647946 5.3292152,25.442803 C 5.0237262,25.23766 4.7737802,24.499357 4.7737802,23.802131 C 4.7737802,23.104904 3.8245172,21.094087 2.6643082,19.333649 C 0.89633818,16.651035 0.54397818,15.67095 0.48778818,13.279712 C 0.39929818,9.5134744 1.2291082,9.3788384 4.5139582,12.626474 C 6.8908392,14.976431 7.2512952,15.146887 9.6351702,15.048245 C 11.045572,14.989884 13.006128,15.149475 13.991962,15.402891 C 15.609499,15.818692 15.717624,15.775431 15.100146,14.95951 C 14.723814,14.462235 14.564574,13.794005 14.746279,13.474555 C 15.247691,12.593038 16.720202,12.772604 19.454808,14.048739 C 20.816076,14.68399 23.543023,15.347889 25.514689,15.524069 C 28.532949,15.793769 29.723926,16.236879 33.050083,18.327661 C 37.815109,21.322897 40.325732,23.864289 41.127565,26.504142 L 41.725815,28.47375 L 44.50416,28.118949 L 47.282499,27.764149 L 46.980962,29.402319 C 46.563077,31.672584 47.896333,32.94269 49.274656,31.58737 C 50.135317,30.741072 50.255809,30.736239 50.5385,31.536676 C 50.710367,32.023311 51.237955,32.347121 51.710919,32.256253 C 52.294271,32.144179 52.702688,32.627961 52.980729,33.76037 L 53.390605,35.429701 L 57.37689,35.430875 C 59.569348,35.431522 61.996925,35.624092 62.771509,35.858809 C 64.122054,36.268058 64.179842,36.433108 64.179842,39.881249 C 64.179842,44.180572 64.527593,43.997456 55.985902,44.195943 C 52.485021,44.277295 50.096508,44.55847 50.096508,44.889241 C 50.096508,45.207076 52.694504,45.61135 56.155117,45.832023 C 59.51747,46.046429 62.537264,46.510109 62.940724,46.873932 C 63.340573,47.234497 63.667721,48.202184 63.667721,49.024349 C 63.667721,51.939771 62.908255,52.329199 55.473781,53.225934 C 47.008105,54.247052 43.828037,54.256092 42.149985,53.263811 z M 48.304084,38.748784 C 48.304084,38.25032 47.806748,37.933697 47.023781,37.933697 C 45.709243,37.933697 45.515569,38.310242 46.05073,39.825549 C 46.432778,40.90731 48.304084,40.013107 48.304084,38.748784 z "
         id="path36668" />
      <path
         sodipodi:nodetypes="cssssssssssssssscccssssscccccsssssccssccssssssssssssssssscccsscccsssc"
         style="fill:#d28f2f"
         d="M 41.470342,53.263811 C 40.477733,52.676854 39.300325,52.612506 36.34913,52.983928 C 31.945391,53.538158 26.511924,53.117218 25.263168,52.125079 C 24.195788,51.277042 24.140116,48.188058 25.172005,47.066862 C 25.716852,46.474861 27.906188,46.089399 32.811147,45.721888 C 36.592625,45.438556 39.744176,45.197902 39.814592,45.187101 C 39.885009,45.1763 39.942623,44.920424 39.942623,44.618487 C 39.942623,44.31655 39.136032,43.703328 38.150198,43.255772 C 36.348738,42.43793 35.905589,41.64169 36.885609,40.983584 C 37.182755,40.784044 37.277927,39.844246 37.10337,38.833248 C 36.834838,37.277968 36.973183,36.94831 38.135997,36.372644 C 38.874481,36.007047 40.060016,35.707922 40.770518,35.707922 C 41.81734,35.707922 42.031258,35.470469 41.898449,34.455924 C 41.735482,33.211045 40.997787,33.000561 39.363506,33.732642 C 38.755807,34.004861 38.386481,33.680685 38.007552,32.542457 C 37.721127,31.68209 37.334735,30.572265 37.148905,30.076181 C 36.684669,28.836877 37.869781,28.416725 42.619787,28.136612 L 46.577255,27.903236 L 46.288522,29.471862 C 45.883244,31.673613 47.240919,32.918866 48.595013,31.58737 C 49.455674,30.741072 49.576166,30.736239 49.858857,31.536676 C 50.030724,32.023311 50.558312,32.347121 51.031276,32.256253 C 51.624328,32.142314 52.026323,32.643798 52.326543,33.872087 C 52.565976,34.851663 53.014609,35.822853 53.32351,36.030287 C 53.632412,36.237721 55.990919,36.469588 58.564641,36.545548 L 63.244138,36.683657 L 63.244138,39.951784 L 63.244138,43.219911 L 59.147169,43.401937 C 53.263208,43.663357 49.416865,44.252208 49.416865,44.891586 C 49.416865,45.206427 52.032949,45.612504 55.475474,45.832023 C 58.837827,46.046429 61.857621,46.510109 62.261081,46.873932 C 62.66093,47.234497 62.988078,48.202184 62.988078,49.024349 C 62.988078,51.939771 62.228612,52.329199 54.794138,53.225934 C 46.328462,54.247052 43.148394,54.256092 41.470342,53.263811 z M 47.624441,38.748784 C 47.624441,38.25032 47.127105,37.933697 46.344138,37.933697 C 45.0296,37.933697 44.835926,38.310242 45.371087,39.825549 C 45.753135,40.90731 47.624441,40.013107 47.624441,38.748784 z M 20.610046,44.80707 C 19.467663,44.195176 18.945652,43.522441 18.945652,42.662099 C 18.945652,41.972689 18.59997,41.096905 18.17747,40.715915 C 17.75497,40.334924 17.409289,39.790086 17.409289,39.505163 C 17.409289,38.313634 14.533685,35.151511 13.450106,35.151495 C 12.678631,35.151484 12.209692,34.727663 12.00614,33.846458 C 11.840343,33.128696 10.219976,30.8125 8.4053238,28.699355 C 6.4537728,26.426792 4.9040758,24.056709 4.6117648,22.897543 C 4.3399598,21.819692 3.4459048,19.941695 2.6249768,18.724217 C 1.3687448,16.861153 0.010664846,13.196884 2.4846316e-05,11.641739 C -0.0065249537,10.68481 1.2827348,11.346057 2.8565608,13.106822 C 3.8444928,14.212102 5.2401068,15.115462 6.2370828,15.294982 C 21.754134,18.08907 23.954174,18.311832 24.371164,17.131125 C 24.817485,15.86737 27.728547,15.978423 29.297115,17.319043 C 29.99639,17.916697 31.122128,18.516966 31.798755,18.652974 C 34.1505,19.125694 35.81664,20.300418 37.190486,22.454454 C 38.281255,24.164657 38.439757,24.763226 37.942846,25.29564 C 37.448114,25.825714 37.09176,25.641855 36.27878,24.437075 C 34.994868,22.534406 34.13523,22.988351 34.592424,25.327579 L 34.935524,27.083047 L 33.470134,25.582346 C 31.342743,23.403691 28.975835,22.496805 20.614932,20.656846 C 12.997795,18.980566 10.484955,18.689521 10.061217,19.434481 C 9.3901469,20.614269 19.296424,39.5878 20.588214,39.596881 C 21.123385,42.164943 20.849007,41.85479 20.610046,44.80707 z M 6.6547428,20.70141 C 6.6547428,20.404971 6.3090608,20.306561 5.8865608,20.482722 C 5.4640608,20.658882 5.1183788,20.901423 5.1183788,21.021701 C 5.1183788,21.14198 5.4640608,21.24039 5.8865608,21.24039 C 6.3090608,21.24039 6.6547428,20.997849 6.6547428,20.70141 z "
         id="path36666" />
      <path
         sodipodi:nodetypes="csssssssssssssscccssssssssssssssccssccssccssc"
         style="fill:#9f7135"
         d="M 41.968167,53.263811 C 40.975558,52.676854 39.79815,52.612506 36.846955,52.983928 C 32.443216,53.538158 27.009749,53.117218 25.760993,52.125079 C 24.693613,51.277042 24.637941,48.188058 25.66983,47.066862 C 26.214677,46.474861 28.404013,46.089399 33.308972,45.721888 C 37.09045,45.438556 40.242001,45.197902 40.312417,45.187101 C 40.382834,45.1763 40.440448,44.920424 40.440448,44.618487 C 40.440448,44.31655 39.633857,43.703328 38.648023,43.255772 C 36.955378,42.48733 36.198682,41.272358 37.412735,41.272358 C 37.774459,41.272358 37.854133,40.528031 37.639894,39.150209 C 37.343088,37.24139 37.443948,36.961707 38.64322,36.367991 C 39.376536,36.004954 40.541812,35.707922 41.232725,35.707922 C 42.134785,35.707922 42.488932,35.403439 42.488932,34.627875 C 42.488932,33.159935 41.706923,32.745691 40.385902,33.513866 C 39.077678,34.274601 38.412191,33.494391 38.399803,31.185397 C 38.388304,29.04113 39.497105,28.373783 43.498318,28.116788 L 47.078097,27.886861 L 46.787852,29.463675 C 46.381095,31.673487 47.73586,32.9217 49.092838,31.58737 C 49.953499,30.741072 50.073991,30.736239 50.356682,31.536676 C 50.528549,32.023311 51.035524,32.347121 51.483302,32.256253 C 52.392369,32.071774 53.870694,35.847459 53.405324,37.165155 C 53.129915,37.944966 55.513287,38.217182 60.669236,37.9948 C 63.206766,37.885353 64.655024,38.734045 63.485903,39.64539 C 62.907482,40.096274 62.875859,40.313915 63.357872,40.526425 C 63.709956,40.681652 63.998024,41.158617 63.998024,41.586349 C 63.998024,42.42442 62.608675,42.894567 60.157115,42.886087 C 57.369388,42.876444 49.91469,44.341373 49.91469,44.898834 C 49.91469,45.204419 52.587697,45.616134 55.973299,45.832023 C 59.335652,46.046429 62.355446,46.510109 62.758906,46.873932 C 63.158755,47.234497 63.485903,48.202184 63.485903,49.024349 C 63.485903,51.939771 62.726437,52.329199 55.291963,53.225934 C 46.826287,54.247052 43.646219,54.256092 41.968167,53.263811 z M 46.585902,41.828802 C 47.210424,41.390276 47.144242,41.287806 46.232037,41.280879 C 45.61491,41.276193 44.967558,41.522758 44.793478,41.828802 C 44.390505,42.537258 45.576962,42.537258 46.585902,41.828802 z M 48.122266,38.748784 C 48.122266,38.25032 47.62493,37.933697 46.841963,37.933697 C 45.527425,37.933697 45.333751,38.310242 45.868912,39.825549 C 46.25096,40.90731 48.122266,40.013107 48.122266,38.748784 z M 60.333807,40.224544 C 60.839552,39.87628 60.653355,39.649513 59.633225,39.371318 C 58.029118,38.933869 57.274098,39.42161 58.379522,40.181206 C 59.304986,40.817143 59.467994,40.820757 60.333807,40.224544 z "
         id="path36664" />
      <path
         sodipodi:nodetypes="csssssssssssccssccccccsssccsccccccssssssccsssc"
         style="fill:#49504f"
         d="M 41.232938,53.263811 C 40.240329,52.676854 39.062921,52.612506 36.111726,52.983928 C 31.707987,53.538158 26.27452,53.117218 25.025764,52.125079 C 23.958384,51.277042 23.902712,48.188058 24.934601,47.066862 C 25.479887,46.474384 27.620696,46.098517 32.419442,45.752731 C 36.116055,45.486363 39.440447,45.057908 39.806977,44.800611 C 40.818836,44.090309 45.889968,43.197247 47.785872,43.395472 C 49.027213,43.525259 49.427789,43.815423 49.322236,44.508359 C 49.197764,45.325518 49.95619,45.495214 55.23807,45.832023 C 58.600423,46.046429 61.620217,46.510109 62.023677,46.873932 C 62.423526,47.234497 62.750674,48.202184 62.750674,49.024349 C 62.750674,51.939771 61.991208,52.329199 54.556734,53.225934 C 46.091058,54.247052 42.91099,54.256092 41.232938,53.263811 z M 20.833741,44.199685 C 19.426648,42.554723 19.705353,41.445319 22.402673,37.954448 C 23.2966,36.797527 24.277734,34.879774 24.582969,33.692775 C 25.12724,31.576218 25.188994,31.531372 27.784986,31.367442 L 30.432028,30.109379 L 30.864078,34.747908 C 30.648651,41.00546 31.100277,42.329557 26.134006,44.611019 C 23.469961,46.009215 22.304219,45.918746 20.833741,44.199685 z M 62.409258,41.526102 C 62.409258,41.080499 62.601303,40.715915 62.836029,40.715915 C 63.07075,40.715915 63.262795,40.951536 63.262795,41.239519 C 63.262795,41.527501 63.07075,41.892085 62.836029,42.049706 C 62.601303,42.207328 62.409258,41.971706 62.409258,41.526102 z M 38.494718,40.990487 C 37.514263,39.925178 36.70701,36.470843 37.589461,35.512019 C 37.927461,35.144766 37.75837,33.526104 37.501582,32.935195 C 37.495685,31.698909 38.196257,30.412474 38.226431,29.287768 C 39.271885,28.831241 39.927664,28.586269 43.440979,28.137611 L 46.365452,27.764149 L 50.245733,27.765955 C 53.057701,28.110108 52.367018,30.063433 52.748417,30.619889 C 53.079343,31.36755 53.748283,32.846375 53.668779,33.924512 C 53.534215,35.749275 52.462635,36.057165 50.886146,37.478225 C 49.177694,39.01824 47.387037,39.536084 47.387037,38.49014 C 47.387037,38.184096 46.784024,37.933697 46.047005,37.933697 C 44.956202,37.933697 44.757115,38.142034 44.976569,39.053867 C 45.295478,40.378908 44.427473,40.98459 41.439415,41.522057 C 39.830811,41.811398 39.134567,41.685714 38.494718,40.990487 z M 48.945079,41.411469 C 48.980748,40.724729 52.554094,38.455248 53.062339,38.796544 C 53.320924,38.97019 53.532492,39.723484 53.532492,40.470532 C 53.532492,41.709371 53.329856,41.828802 51.227946,41.828802 C 49.960446,41.828802 48.933157,41.641002 48.945079,41.411469 z "
         id="path36662" />
      <path
         sodipodi:nodetypes="cssssssssssssssccssccsssccssscccssssccsssccssssccssssssc"
         style="fill:#2b312f"
         d="M 41.826658,53.327146 C 41.680227,52.849824 39.500065,52.707207 33.918704,52.80984 C 27.340708,52.930801 26.089866,52.817836 25.372137,52.03799 C 23.615269,50.129071 24.72071,47.665912 27.593778,47.087699 C 29.034051,46.797839 29.529263,46.949961 30.17543,47.880744 C 31.030372,49.112261 32.725295,48.902887 32.725295,47.565758 C 32.725295,47.047966 33.943443,46.71341 36.822265,46.440553 C 39.075599,46.226981 40.919235,45.854452 40.919235,45.61271 C 40.919235,45.007918 45.491341,43.997198 46.501607,44.378659 C 46.952136,44.548772 47.666432,45.137925 48.088932,45.687888 C 48.697409,46.479934 49.708879,46.707339 52.954084,46.781708 C 59.963933,46.942349 61.753684,47.295209 62.303656,48.625034 C 63.021865,50.361657 62.092257,52.139453 60.257475,52.538168 C 59.409357,52.722471 57.490356,52.873264 55.993021,52.873264 C 54.495687,52.873264 53.128164,53.123664 52.954084,53.429708 C 52.486261,54.252169 42.081018,54.156263 41.826658,53.327146 z M 48.361632,50.237407 C 47.371066,49.673481 46.790746,49.609676 46.410455,50.022881 C 45.870223,50.609869 45.952224,50.67534 48.088932,51.36298 C 49.564773,51.837938 49.759707,51.033331 48.361632,50.237407 z M 52.698023,50.309735 C 52.698023,50.189456 52.352341,50.091047 51.929841,50.091047 C 51.507341,50.091047 51.16166,50.333588 51.16166,50.630026 C 51.16166,50.926465 51.507341,51.024875 51.929841,50.848715 C 52.352341,50.672555 52.698023,50.430014 52.698023,50.309735 z M 22.079671,42.811143 C 21.453193,40.630111 21.487008,40.465082 22.92501,38.685543 C 23.748866,37.666014 24.687985,35.959222 25.011942,34.892672 C 25.534275,33.173009 30.106676,29.058604 30.455964,30.651526 C 31.044252,33.334407 31.035767,32.210718 30.305899,38.495649 L 30.298624,39.764472 L 30.332072,41.341577 C 29.489121,42.4673 29.2362,43.007546 28.612832,43.435903 C 28.198854,43.720376 27.470449,43.95696 26.994155,43.961646 C 26.517862,43.966333 25.985739,44.220567 25.811659,44.526611 C 25.637579,44.832655 24.873498,45.083054 24.113701,45.083054 C 22.945304,45.083054 22.631609,44.732673 22.079671,42.811143 z M 20.434386,42.85728 C 20.434386,42.551236 20.536012,42.300837 20.660223,42.300837 C 20.784433,42.300837 21.028488,42.551236 21.202568,42.85728 C 21.376648,43.163324 21.275021,43.413724 20.976731,43.413724 C 20.678441,43.413724 20.434386,43.163324 20.434386,42.85728 z M 38.360319,40.358116 C 37.476675,37.832807 38.059934,37.238939 42.084249,36.566458 C 43.273026,36.367809 43.45675,36.495297 43.208156,37.346342 C 43.044707,37.905886 43.143413,38.835592 43.427502,39.412355 C 44.156154,40.89169 43.19693,41.744393 40.804136,41.744393 C 39.187856,41.744393 38.760588,41.502022 38.360319,40.358116 z M 42.96772,33.437486 C 42.96772,33.153302 42.606034,32.527799 42.163971,32.04748 C 41.557271,31.388271 41.117846,31.315118 40.371547,31.74909 C 39.253376,32.399311 39.148366,32.131342 39.913009,30.578941 C 40.614764,29.154224 44.802799,28.967108 44.302815,30.38281 C 44.131843,30.866907 43.991962,31.868505 43.991962,32.608584 C 43.991962,33.348664 43.761508,33.954183 43.479841,33.954183 C 43.198174,33.954183 42.96772,33.721669 42.96772,33.437486 z "
         id="path36660" />
      <path
         sodipodi:nodetypes="cssccssccssssssssccsssccssssssssssssccssccsssssssccssssc"
         style="fill:#101514"
         d="M 41.43628,52.868183 C 42.073313,52.735085 42.995131,52.740138 43.484765,52.879412 C 43.974399,53.018686 43.453188,53.127584 42.326521,53.121408 C 41.199854,53.115231 40.799247,53.00128 41.43628,52.868183 z M 46.541775,52.896742 C 46.888497,52.744319 47.579861,52.735041 48.078139,52.876123 C 48.576418,53.017206 48.292733,53.141916 47.447733,53.153255 C 46.602733,53.164596 46.195054,53.049164 46.541775,52.896742 z M 24.018187,51.547832 C 22.903999,50.842712 22.854378,48.62399 23.926737,47.458822 C 24.978692,46.315824 27.731066,46.287068 27.731066,47.419076 C 27.731066,48.717393 30.654861,48.497758 31.434764,47.140854 C 31.957998,46.230513 32.629045,46.027967 35.121834,46.027967 C 37.814139,46.027967 38.058451,46.116 37.218399,46.783424 C 36.353359,47.470698 36.343219,47.584897 37.106039,48.04874 C 37.567215,48.329162 38.008668,49.178605 38.087043,49.93639 C 38.219575,51.217724 38.032359,51.339545 35.412884,51.676483 C 31.021658,52.241318 25.006681,52.173406 24.018187,51.547832 z M 27.218945,48.810185 C 27.218945,48.504141 26.98849,48.253741 26.706824,48.253741 C 26.425157,48.253741 26.194702,48.504141 26.194702,48.810185 C 26.194702,49.116229 26.425157,49.366629 26.706824,49.366629 C 26.98849,49.366629 27.218945,49.116229 27.218945,48.810185 z M 52.032289,51.549265 C 51.75794,51.066946 53.059906,50.479516 54.403256,50.479516 C 54.943549,50.479516 55.385612,50.214338 55.385612,49.890232 C 55.385612,49.566127 55.145023,49.46251 54.850968,49.659974 C 54.556918,49.857437 53.758434,49.621815 53.076565,49.13637 C 51.655649,48.124773 49.693482,47.983763 48.90837,48.836824 C 48.534265,49.243306 47.960361,49.216254 47.013521,48.747507 C 44.440988,47.473939 45.68977,46.584411 50.050226,46.584411 C 51.576352,46.584411 52.825006,46.83481 52.825006,47.140854 C 52.825006,47.446898 53.401143,47.697298 54.105309,47.697298 C 54.809476,47.697298 55.385612,47.446898 55.385612,47.140854 C 55.385612,46.530272 57.897874,46.385655 59.184635,46.922166 C 60.166684,47.331628 60.307799,50.962003 59.354552,51.293509 C 58.089177,51.73356 52.253064,51.937407 52.032289,51.549265 z M 42.07046,45.234103 C 42.07046,44.717926 42.508324,44.358636 43.137378,44.358636 C 44.385443,44.358636 44.209027,45.658919 42.924233,45.929657 C 42.418892,46.036145 42.07046,45.752284 42.07046,45.234103 z M 20.666552,40.567722 C 21.393364,39.750851 21.121339,39.573417 21.213567,39.395645 C 21.305795,39.217873 22.000465,37.632625 22.757278,35.872872 C 24.096991,32.757753 25.370264,31.02183 27.370063,31.082413 C 30.370925,31.173322 29.527061,32.982266 28.14859,37.207586 C 27.65163,38.730879 27.580581,38.920211 26.965093,39.602678 C 26.377562,40.254145 24.916722,41.576419 25.188478,41.576419 C 25.460235,41.576419 22.61698,42.747872 22.318945,42.678317 C 20.728036,42.30703 21.259868,41.469701 20.666552,40.567722 z M 37.145923,39.66137 C 36.58745,38.080058 37.193264,36.849258 38.618021,36.670577 C 39.517239,36.557806 40.02449,36.757853 40.028966,37.227021 C 40.032812,37.629904 40.17492,38.522935 40.34476,39.211534 C 40.617122,40.315816 40.463347,40.463532 39.041391,40.463532 C 38.109812,40.463532 37.309628,40.124892 37.145923,39.66137 z "
         id="path36658" />
      <rect
         rx="4.3636365"
         ry="3.1818182"
         y="45.735336"
         x="24.573866"
         height="7.090909"
         width="22.181818"
         id="rect25965"
         style="opacity:0.60829492;fill:black;fill-opacity:1;fill-rule:nonzero;stroke:black;stroke-width:0.41935223;stroke-linecap:square;stroke-linejoin:bevel;stroke-miterlimit:4;stroke-dasharray:none;stroke-opacity:1" />
      <rect
         style="opacity:0.60829492;fill:black;fill-opacity:1;fill-rule:nonzero;stroke:black;stroke-width:0.41935223;stroke-linecap:square;stroke-linejoin:bevel;stroke-miterlimit:4;stroke-dasharray:none;stroke-opacity:1"
         id="rect26856"
         width="22.181818"
         height="7.090909"
         x="40.119324"
         y="46.587612"
         ry="3.1818182"
         rx="4.3636365" />
      <path
         sodipodi:nodetypes="cccccc"
         id="path29521"
         d="M 38.208292,37.769089 C 39.358569,38.003404 40.485976,38.089061 41.550978,37.769089 C 41.95376,35.797761 41.671953,33.826433 41.550978,31.855105 C 40.908154,31.613064 40.265329,31.830172 39.622505,31.855105 C 39.176628,32.185866 38.704974,32.480539 38.465421,33.100155 C 38.024485,34.580346 38.054075,36.161365 38.208292,37.769089 z "
         style="fill:#8c8c96;fill-opacity:1;fill-rule:evenodd;stroke:none;stroke-width:1px;stroke-linecap:butt;stroke-linejoin:miter;stroke-opacity:1" />
      <path
         sodipodi:nodetypes="ccccccc"
         id="path33069"
         d="M 50,31.327695 C 50,31.327695 50,36.327695 50,36.327695 C 50.325272,36.685398 51.036999,36.244129 51.409723,35.327695 L 51.474005,31.888636 C 51.450622,31.384393 51.234095,31.073295 51,30.779764 C 50.622128,30.583014 50.29219,30.649897 50,30.924399 L 50,31.327695 z "
         style="fill:#8c8c96;fill-opacity:1;fill-rule:evenodd;stroke:none;stroke-width:1px;stroke-linecap:butt;stroke-linejoin:miter;stroke-opacity:1" />
      <path
         sodipodi:nodetypes="cccccccccccc"
         id="path37570"
         d="M 23.818182,33.681818 L 26.136363,28.863636 L 26.681818,30.409091 L 27.272727,28.863636 L 27.681818,29.863636 L 28.681818,28.863636 L 28.681818,29.863636 L 29.681818,28.863636 L 29.681818,30.318181 L 30.681818,29.318181 L 29.181818,33.318181 L 23.818182,33.681818 z "
         style="fill:#101514;fill-opacity:1;fill-rule:evenodd;stroke:none;stroke-width:1px;stroke-linecap:butt;stroke-linejoin:miter;stroke-opacity:1" />
    </g>
  </g>
</svg>
